<svg xmlns="http://www.w3.org/2000/svg" viewBox="0 0 425.12 85.85">
  <path fill="#fff" d="M176.33 20.37v6.42l-.89-1.12c-3.48-4.38-8.45-6.6-14.77-6.6a20.73 20.73 0 0 0-15.63 7 24.36 24.36 0 0 0-6.47 17A24.46 24.46 0 0 0 145 60.26a20.85 20.85 0 0 0 15.63 6.91c6.32 0 11.29-2.22 14.77-6.6l.89-1.12v6.42h11v-45.5ZM162.9 56.23a12.51 12.51 0 0 1-9.21-3.62 13.07 13.07 0 0 1-3.62-9.49 12.74 12.74 0 0 1 3.62-9.39 13.26 13.26 0 0 1 18.42 0 12.54 12.54 0 0 1 3.72 9.39 12.86 12.86 0 0 1-3.72 9.49 12.51 12.51 0 0 1-9.21 3.62ZM233.88 46.79a11 11 0 0 0-3.69-4.14 23.63 23.63 0 0 0-4.78-2.46 44.28 44.28 0 0 0-5.34-1.52c-5.95-1.5-8.85-3.33-8.85-5.6a3.71 3.71 0 0 1 1.78-3.15 7.12 7.12 0 0 1 4.15-1.16 8.06 8.06 0 0 1 7.65 4.56l9.33-5.09a18.25 18.25 0 0 0-6.9-6.67 20.71 20.71 0 0 0-10.08-2.49A19.51 19.51 0 0 0 204.78 23 12.47 12.47 0 0 0 200 33.35a12.25 12.25 0 0 0 1.29 5.77 10.32 10.32 0 0 0 3.78 4 26.63 26.63 0 0 0 4.74 2.42c1.46.55 3.26 1.11 5.34 1.66 6 1.5 8.84 3.34 8.84 5.6 0 3-2.32 4.5-6.91 4.5s-7.8-2-9.38-5.83l-9.5 5.35c3.42 6.87 9.76 10.36 18.88 10.36a22 22 0 0 0 13-3.72 12.44 12.44 0 0 0 5.19-10.66 12.94 12.94 0 0 0-1.39-6.01ZM284.27 24a16.07 16.07 0 0 0-12.19-4.95c-6.18 0-10.7 2.11-13.44 6.28l-.92 1.4v-6.36h-11v45.5h11V41.26c0-3.9 1-6.91 2.88-8.95a10.27 10.27 0 0 1 7.85-3.08 9.51 9.51 0 0 1 7.1 2.66 10.17 10.17 0 0 1 2.61 7.41v26.57h11V37.82c0-5.82-1.64-10.43-4.89-13.82ZM311.23 1.77l-16.59 5.86 2.89 10.04 12.44-3.48v51.68h11.83V1.77h-10.57zM349 54.44a7.39 7.39 0 1 0-10.44 10.46A7.39 7.39 0 1 0 349 54.44ZM371.68 13.79a6.52 6.52 0 0 0 4.81-2 6.54 6.54 0 0 0 2-4.81 6.69 6.69 0 0 0-2-4.86A6.46 6.46 0 0 0 371.68 0a6.54 6.54 0 0 0-4.89 2.08 6.67 6.67 0 0 0-2.05 4.86 6.54 6.54 0 0 0 2 4.81 6.64 6.64 0 0 0 4.94 2.04ZM366.14 67.3c0 2.92-.73 5-2.17 6.32a8.08 8.08 0 0 1-5.49 1.66h-.62V85.8h1.93c5.51 0 9.72-1.34 12.53-4 3.19-3 4.81-7.92 4.81-14.56V20.37h-11ZM423.78 46.79a10.78 10.78 0 0 0-3.69-4.14 23.37 23.37 0 0 0-4.78-2.46 44.28 44.28 0 0 0-5.31-1.52c-6-1.5-8.84-3.33-8.84-5.6a3.71 3.71 0 0 1 1.75-3.15 7.09 7.09 0 0 1 4.09-1.16 8.09 8.09 0 0 1 7.66 4.56l9.34-5.09a18.25 18.25 0 0 0-6.9-6.67 20.71 20.71 0 0 0-10.1-2.49A19.55 19.55 0 0 0 394.68 23a12.49 12.49 0 0 0-4.83 10.39 12.31 12.31 0 0 0 1.29 5.77 10.39 10.39 0 0 0 3.78 4 26.69 26.69 0 0 0 4.75 2.42 54.53 54.53 0 0 0 5.33 1.61c5.94 1.5 8.84 3.34 8.84 5.6 0 3-2.33 4.5-6.92 4.5s-7.8-2-9.38-5.83l-9.5 5.35c3.42 6.87 9.77 10.36 18.88 10.36a22.06 22.06 0 0 0 13-3.72 12.43 12.43 0 0 0 5.18-10.66 12.94 12.94 0 0 0-1.32-6Z"/>
  <path fill="#f90" d="M75 11.37a10 10 0 0 1 5-8.65V1.37H10a10 10 0 0 0 0 20h70V20a10 10 0 0 1-5-8.63Z"/>
  <path fill="#ef8200" d="M75 71.37a10 10 0 0 1 5-8.65v-1.35H10a10 10 0 0 0 0 20h70V80a10 10 0 0 1-5-8.63Z"/>
  <path fill="#f78700" d="M85 31.37H15v1.35A10 10 0 0 1 15 50v1.35h70a10 10 0 1 0 0-20Z"/>
</svg>
