<svg xmlns="http://www.w3.org/2000/svg" width="298" height="126" fill="none">
  <g clip-path="url(#clip0_1_15)">
    <path fill="#fff" d="M130.227 78.535c-1.809 0-3.422-.313-4.838-.941-1.416-.64-2.536-1.582-3.361-2.825-.812-1.256-1.218-2.82-1.218-4.69 0-1.577.289-2.9.868-3.971a7.022 7.022 0 0 1 2.363-2.585c.997-.653 2.13-1.145 3.398-1.478a25.89 25.89 0 0 1 4.025-.701c1.65-.173 2.98-.333 3.989-.48 1.01-.16 1.742-.394 2.198-.702.455-.308.683-.763.683-1.367v-.11c0-1.17-.37-2.075-1.108-2.715-.726-.64-1.761-.96-3.102-.96-1.416 0-2.543.314-3.38.942-.837.615-1.391 1.39-1.662 2.326l-7.275-.59c.369-1.724 1.095-3.214 2.179-4.47 1.083-1.267 2.48-2.24 4.192-2.917 1.723-.69 3.717-1.034 5.983-1.034 1.575 0 3.083.185 4.524.554 1.452.37 2.739.942 3.859 1.717a8.348 8.348 0 0 1 2.678 2.992c.652 1.206.978 2.653.978 4.34V78h-7.46v-3.933h-.222a7.985 7.985 0 0 1-1.828 2.345c-.763.665-1.68 1.188-2.751 1.57-1.071.369-2.308.553-3.712.553Zm2.253-5.428c1.157 0 2.179-.228 3.065-.684.887-.468 1.582-1.095 2.087-1.883.505-.788.757-1.68.757-2.678v-3.01c-.246.16-.585.308-1.015.444-.419.123-.893.24-1.422.35-.53.099-1.059.191-1.588.277l-1.441.203c-.923.136-1.729.351-2.419.647-.689.295-1.225.695-1.606 1.2-.382.492-.573 1.108-.573 1.847 0 1.07.388 1.89 1.164 2.456.788.553 1.785.83 2.991.83Zm43.423-15.383-7.202.444a3.724 3.724 0 0 0-.794-1.662c-.406-.505-.942-.905-1.607-1.2-.652-.308-1.434-.462-2.345-.462-1.218 0-2.246.258-3.084.775-.837.505-1.255 1.182-1.255 2.032 0 .677.271 1.25.812 1.717.542.468 1.471.843 2.789 1.126l5.133 1.034c2.758.567 4.814 1.478 6.168 2.733 1.354 1.256 2.031 2.906 2.031 4.95 0 1.858-.548 3.49-1.643 4.893-1.084 1.403-2.573 2.499-4.469 3.287-1.884.775-4.057 1.163-6.519 1.163-3.754 0-6.746-.782-8.974-2.345-2.216-1.576-3.515-3.718-3.896-6.426l7.737-.407c.234 1.145.8 2.02 1.699 2.623.898.59 2.049.886 3.453.886 1.379 0 2.487-.265 3.324-.794.849-.542 1.28-1.237 1.292-2.087-.012-.714-.314-1.299-.905-1.754-.59-.468-1.501-.825-2.733-1.071l-4.911-.979c-2.77-.554-4.832-1.514-6.187-2.88-1.341-1.367-2.012-3.109-2.012-5.226 0-1.822.492-3.392 1.477-4.71.997-1.316 2.394-2.332 4.192-3.046 1.809-.714 3.927-1.071 6.352-1.071 3.582 0 6.402.757 8.457 2.271 2.069 1.515 3.275 3.577 3.62 6.186Zm13.466 3.878V78h-7.867V49.636H189v5.005h.332a7.91 7.91 0 0 1 3.158-3.915c1.477-.973 3.268-1.459 5.373-1.459 1.97 0 3.687.43 5.152 1.293 1.465.861 2.604 2.093 3.416 3.693.813 1.588 1.219 3.484 1.219 5.687V78h-7.866V61.344c.012-1.736-.431-3.09-1.33-4.063-.898-.985-2.136-1.477-3.711-1.477-1.059 0-1.995.228-2.807.683-.8.456-1.428 1.12-1.884 1.994-.443.862-.671 1.902-.683 3.121Zm38.778-21.42V78h-7.995V47.771h-.222l-8.66 5.43v-7.092l9.362-5.927h7.515Zm11.629 38.298c-1.218 0-2.265-.43-3.139-1.293-.862-.874-1.293-1.92-1.293-3.139 0-1.206.431-2.24 1.293-3.102.874-.862 1.921-1.293 3.139-1.293 1.182 0 2.216.431 3.103 1.293.886.862 1.329 1.896 1.329 3.102 0 .813-.209 1.558-.628 2.235a4.778 4.778 0 0 1-1.606 1.606 4.234 4.234 0 0 1-2.198.591Zm10.891-28.844h7.866v29.767c0 2.192-.431 3.964-1.293 5.319-.861 1.354-2.099 2.345-3.711 2.973-1.601.627-3.515.941-5.743.941-.271 0-.529-.006-.776-.018-.258 0-.529-.006-.812-.019V82.45c.209.013.394.019.554.019.148.012.308.018.48.018 1.268 0 2.154-.27 2.659-.812.517-.53.776-1.33.776-2.4V49.635Zm3.914-3.656c-1.157 0-2.154-.388-2.991-1.163-.837-.788-1.256-1.73-1.256-2.825 0-1.084.419-2.013 1.256-2.789.837-.788 1.834-1.182 2.991-1.182 1.182 0 2.185.394 3.01 1.182.837.776 1.256 1.705 1.256 2.788 0 1.096-.419 2.038-1.256 2.826-.825.775-1.828 1.163-3.01 1.163Zm33.853 11.744-7.202.444a3.724 3.724 0 0 0-.794-1.662c-.406-.505-.942-.905-1.606-1.2-.653-.308-1.435-.462-2.345-.462-1.219 0-2.247.258-3.084.775-.837.505-1.256 1.182-1.256 2.032 0 .677.271 1.25.813 1.717.541.468 1.471.843 2.788 1.126l5.133 1.034c2.758.567 4.814 1.478 6.168 2.733 1.354 1.256 2.031 2.906 2.031 4.95 0 1.858-.548 3.49-1.643 4.893-1.084 1.403-2.573 2.499-4.469 3.287-1.883.775-4.056 1.163-6.518 1.163-3.755 0-6.747-.782-8.975-2.345-2.216-1.576-3.515-3.718-3.896-6.426l7.737-.407c.234 1.145.8 2.02 1.699 2.623.899.59 2.05.886 3.453.886 1.379 0 2.487-.265 3.324-.794.849-.542 1.28-1.237 1.293-2.087-.013-.714-.314-1.299-.905-1.754-.591-.468-1.502-.825-2.733-1.071l-4.912-.979c-2.77-.554-4.832-1.514-6.186-2.88-1.342-1.367-2.013-3.109-2.013-5.226 0-1.822.492-3.392 1.477-4.71.997-1.316 2.395-2.332 4.192-3.046 1.81-.714 3.927-1.071 6.352-1.071 3.583 0 6.402.757 8.458 2.271 2.068 1.515 3.274 3.577 3.619 6.186Z"/>
    <path fill="#0190FF" d="M75 31a10 10 0 0 1 5-8.65V21H10a10 10 0 0 0 0 20h70v-1.35A10 10 0 0 1 75 31Z"/>
    <path fill="#027ACC" d="M75 91a10 10 0 0 1 5-8.65V81H10a10 10 0 0 0 0 20h70v-1.35A10 10 0 0 1 75 91Z"/>
    <path fill="#0389E5" d="M80 51H10v1.35a10 10 0 0 1 0 17.3V71h70a10 10 0 0 0 0-20Z"/>
  </g>
  <defs>
    <clipPath id="clip0_1_15">
      <path fill="#fff" d="M0 0h298v126H0z"/>
    </clipPath>
  </defs>
</svg>
